<?xml version="1.0" standalone="no"?>
<!DOCTYPE svg PUBLIC "-//W3C//DTD SVG 20010904//EN"
 "http://www.w3.org/TR/2001/REC-SVG-20010904/DTD/svg10.dtd">
<svg version="1.0" xmlns="http://www.w3.org/2000/svg"
 width="265.000000pt" height="265.000000pt" viewBox="0 0 265.000000 265.000000"
 preserveAspectRatio="xMidYMid meet">
<metadata>
Created by potrace 1.14, written by Peter Selinger 2001-2017
</metadata>
<g transform="translate(0.000000,265.000000) scale(0.100000,-0.100000)"
fill="#000000" stroke="none">
<path d="M0 1325 l0 -1325 1325 0 1325 0 0 1325 0 1325 -1325 0 -1325 0 0
-1325z m1472 815 c-2 -22 4 -53 12 -69 13 -24 24 -30 63 -35 26 -4 61 -12 76
-18 20 -8 35 -8 52 0 48 22 44 -34 -5 -65 -16 -10 -42 -37 -59 -60 -17 -23
-45 -50 -62 -59 -17 -8 -42 -28 -54 -42 -21 -25 -28 -26 -93 -24 -43 2 -91 -3
-123 -12 -29 -9 -64 -16 -77 -16 -21 0 -22 2 -12 15 7 8 22 15 34 15 12 0 31
8 42 19 36 33 61 41 128 41 51 0 66 3 66 14 0 21 -80 31 -135 17 -24 -6 -64
-11 -89 -11 -25 0 -47 -4 -51 -9 -3 -5 -18 -12 -33 -16 -51 -11 -130 -100
-118 -131 6 -14 9 -15 24 -3 34 27 62 39 94 39 l33 0 -25 -20 c-14 -11 -38
-24 -55 -30 -21 -7 -36 -23 -49 -52 -10 -22 -32 -48 -47 -57 -15 -9 -33 -27
-39 -41 -10 -22 -13 -23 -21 -8 -12 21 24 98 45 98 19 0 39 27 33 44 -9 22
-46 7 -53 -20 -6 -25 -12 -28 -38 -18 -23 9 -19 33 9 56 14 11 25 30 25 43 0
25 13 39 49 50 14 4 39 23 57 41 24 26 40 34 66 34 20 0 41 6 47 14 6 7 37 16
68 18 38 3 60 11 69 22 7 10 31 20 54 23 32 5 45 2 63 -15 20 -19 51 -27 87
-23 17 1 53 58 45 71 -9 14 -102 30 -173 30 -132 -1 -322 -48 -338 -84 -5 -12
-31 -30 -61 -42 -56 -22 -93 -49 -93 -69 0 -6 -22 -32 -49 -58 -38 -37 -54
-61 -66 -104 -22 -74 -11 -84 53 -51 l49 25 2 -26 c1 -14 4 -122 7 -239 4
-181 2 -217 -11 -246 -16 -33 -15 -36 8 -83 32 -62 66 -98 110 -117 20 -8 41
-26 49 -43 10 -23 28 -33 93 -55 67 -22 98 -27 193 -27 109 -1 113 -2 122 -25
11 -31 25 -39 50 -31 31 10 24 33 -18 54 -21 11 -44 27 -51 35 -8 9 -26 16
-41 16 -41 0 -60 10 -60 30 0 26 21 39 68 41 37 3 47 -2 80 -34 20 -20 56 -51
80 -67 l42 -30 0 -65 c0 -73 -9 -80 -52 -40 -26 24 -31 25 -170 25 -125 0
-152 3 -211 24 -38 13 -78 33 -90 44 -12 11 -46 27 -76 37 -40 13 -57 25 -70
48 -48 91 -145 155 -182 121 -25 -23 -49 -7 -49 32 0 19 5 34 12 34 16 0 48
31 48 47 0 20 -37 15 -59 -8 -21 -23 -41 -18 -41 9 0 9 11 37 25 61 30 52 29
46 6 68 -12 12 -22 43 -30 93 -6 41 -16 99 -22 129 -6 30 -7 71 -4 90 l7 36
20 -45 c14 -31 22 -76 26 -145 2 -57 10 -103 16 -107 6 -4 23 -8 38 -8 34 0
58 -33 58 -80 0 -42 9 -57 35 -62 19 -3 20 3 23 205 2 206 -3 247 -32 247 -7
0 -18 -11 -24 -24 -8 -17 -22 -27 -46 -32 -46 -8 -66 0 -66 28 -1 13 -7 37
-14 53 -11 25 -11 35 1 57 7 15 22 32 33 38 20 11 83 102 94 136 3 11 22 28
41 37 19 9 51 39 70 65 29 41 45 53 92 69 144 51 309 93 362 93 49 0 61 18 61
86 0 37 3 45 12 36 7 -7 11 -30 10 -52z m-166 13 c15 -16 15 -17 -2 -24 -11
-4 -47 -8 -81 -8 -34 -1 -64 -5 -68 -10 -3 -6 -26 -13 -51 -17 -30 -4 -54 -15
-67 -30 -26 -30 -67 -32 -67 -4 0 10 10 25 22 31 37 20 169 59 202 60 17 0 40
4 51 9 30 13 42 12 61 -7z m341 -17 c21 -7 70 -23 109 -35 59 -19 76 -29 100
-61 18 -24 41 -42 58 -46 25 -5 27 -8 12 -16 -12 -7 -24 -5 -42 7 -43 28 -54
14 -54 -64 0 -51 -4 -74 -15 -83 -18 -15 -13 -9 -105 -112 l-70 -79 0 -83 0
-83 -37 -6 c-21 -4 -60 -13 -86 -22 -47 -15 -49 -14 -87 11 -44 29 -67 31
-125 13 -65 -20 -84 -35 -96 -76 -18 -61 -3 -168 27 -196 31 -29 130 -43 174
-25 51 21 31 60 -30 60 -20 0 -41 5 -48 12 -15 15 -15 61 0 76 16 16 120 16
136 0 7 -7 12 -39 12 -75 0 -72 11 -83 84 -83 65 0 78 -17 74 -101 l-2 -68 56
-59 56 -59 -2 -134 c-3 -125 -4 -134 -23 -137 -33 -5 -41 18 -45 137 -2 88 -6
115 -17 119 -8 3 -33 22 -55 42 l-41 38 -156 -5 c-150 -6 -158 -5 -198 17 -22
13 -41 27 -41 32 0 4 -24 23 -54 42 -40 25 -56 43 -61 64 -9 42 -40 101 -62
117 -15 11 -18 28 -18 114 0 94 2 101 26 128 15 15 34 52 44 81 13 42 24 57
55 75 22 12 44 32 49 44 6 13 16 23 22 23 7 0 20 6 28 13 9 8 52 19 97 26 67
10 92 9 153 -4 40 -8 82 -15 93 -15 17 0 71 40 123 91 119 117 110 103 107
166 -2 41 -8 63 -22 78 -11 12 -20 26 -20 32 0 12 -23 23 -45 23 -27 0 -125
42 -120 51 9 13 38 11 82 -5z m334 -193 c25 -31 49 -80 42 -86 -7 -8 -53 52
-53 69 0 7 -8 18 -17 23 -15 9 -16 10 -2 11 9 0 22 -8 30 -17z m-1171 -38 c0
-32 -44 -75 -77 -75 -21 0 -22 3 -13 20 6 11 15 20 20 20 5 0 16 14 25 30 19
37 45 40 45 5z m1265 -64 c10 -18 -17 -23 -33 -7 -15 15 -15 16 5 16 12 0 24
-4 28 -9z m-1365 -36 c0 -20 -40 -95 -51 -95 -14 0 -11 20 13 66 22 44 38 57
38 29z m1251 -36 c47 -71 45 -67 64 -134 10 -33 26 -67 37 -76 17 -13 22 -33
27 -118 8 -112 13 -121 69 -121 17 0 32 -4 32 -10 0 -5 -17 -10 -38 -10 -49 0
-62 -14 -62 -69 0 -31 -10 -66 -29 -105 -24 -48 -29 -67 -24 -105 4 -42 2 -50
-30 -91 -20 -24 -39 -55 -42 -68 -7 -27 -51 -72 -72 -72 -8 0 -21 -17 -30 -37
-23 -57 -41 -65 -72 -34 -19 19 -20 35 -19 258 1 230 0 239 -23 282 -22 42
-22 45 -6 74 24 40 40 204 27 263 -14 62 10 107 37 72 6 -7 11 -61 11 -119 0
-138 4 -144 90 -144 37 0 73 4 80 8 18 12 15 115 -7 162 -10 22 -21 53 -25 68
-4 16 -25 46 -47 68 -33 33 -38 43 -33 66 9 39 13 43 33 43 10 0 32 -22 52
-51z m137 -89 c24 -56 30 -114 10 -108 -7 3 -16 24 -21 47 -6 30 -15 44 -31
51 -22 8 -36 29 -36 51 0 5 13 9 28 9 24 0 31 -7 50 -50z m-1448 -8 c0 -15 -6
-36 -14 -47 -7 -11 -15 -47 -18 -79 -4 -47 -10 -63 -29 -79 -23 -18 -24 -25
-24 -134 1 -109 2 -116 24 -134 18 -15 25 -32 28 -72 3 -29 11 -66 19 -84 8
-17 14 -41 14 -52 0 -23 27 -71 46 -83 7 -4 15 -23 18 -42 4 -22 14 -37 26
-41 21 -7 28 -35 9 -35 -15 0 -69 52 -69 67 0 17 -32 85 -47 101 -7 7 -13 24
-13 38 0 14 -12 35 -30 51 -24 21 -30 34 -30 67 0 23 -7 59 -15 81 -16 46 -19
180 -4 245 6 25 14 71 19 103 4 32 10 59 11 60 36 19 44 28 47 53 2 16 5 35 7
42 8 22 25 3 25 -26z m1230 -143 c0 -21 -16 -26 -23 -6 -6 17 3 38 14 31 5 -3
9 -14 9 -25z m264 15 c3 -9 6 -33 6 -55 0 -28 -4 -39 -15 -39 -12 0 -15 13
-15 55 0 53 11 72 24 39z m151 -219 c0 -14 -8 -21 -27 -23 -22 -3 -28 1 -28
16 0 25 10 33 35 30 12 -2 20 -10 20 -23z m-1615 -144 c0 -17 -4 -33 -10 -36
-11 -7 -25 39 -15 54 12 21 25 11 25 -18z m448 -250 c20 -12 10 -46 -12 -46
-27 0 -46 33 -26 45 18 12 21 12 38 1z m964 -110 c-22 -30 -69 -43 -58 -16 3
9 6 21 6 25 0 5 15 23 33 39 l32 31 3 -27 c2 -15 -5 -37 -16 -52z m-1269 -83
c4 -13 15 -27 26 -33 10 -5 47 -27 81 -47 33 -21 70 -38 81 -38 12 0 33 -13
47 -30 19 -21 36 -30 57 -30 17 0 40 -7 51 -15 15 -11 60 -14 229 -15 151 0
214 -3 223 -12 20 -20 15 -66 -8 -78 -18 -10 -25 -6 -50 20 -29 31 -31 32
-117 29 -117 -3 -253 10 -280 27 -12 8 -36 14 -52 14 -55 0 -128 37 -185 94
-31 30 -66 56 -78 58 -20 3 -67 67 -68 91 0 17 38 -14 43 -35z m1167 2 c0 -11
-4 -20 -9 -20 -5 0 -7 9 -4 20 3 11 7 20 9 20 2 0 4 -9 4 -20z m-40 -86 c12
-22 12 -29 -2 -52 -24 -39 -53 -40 -73 -3 -11 23 -13 36 -5 50 20 38 62 40 80
5z m-1867 -568 c9 -7 17 -21 17 -30 0 -23 -56 -22 -62 2 -10 39 11 53 45 28z"/>
<path d="M1315 1635 c-16 -8 -42 -14 -57 -15 -19 0 -40 -14 -68 -42 -22 -24
-55 -58 -72 -75 -51 -52 -57 -71 -58 -170 0 -98 21 -162 60 -183 10 -5 28 -25
39 -44 44 -71 135 -89 329 -67 78 9 108 25 82 41 -20 13 -136 12 -181 0 -56
-16 -146 11 -182 52 -35 42 -67 102 -67 127 0 11 -5 31 -11 44 -16 34 10 123
57 195 35 52 45 61 92 75 66 21 105 21 147 1 21 -10 53 -14 91 -12 55 3 59 5
59 28 0 31 -34 39 -67 16 -18 -13 -24 -13 -37 -2 -19 15 -96 46 -114 45 -6 0
-25 -7 -42 -14z"/>
<path d="M1802 1353 c-12 -2 -27 -13 -32 -23 -8 -15 -3 -25 32 -54 23 -20 52
-36 65 -36 13 0 23 -4 23 -10 0 -5 -11 -10 -24 -10 -13 0 -27 -7 -30 -16 -3
-9 -6 -103 -6 -210 0 -166 2 -195 15 -201 9 -3 23 1 33 9 9 8 25 18 35 21 24
9 21 32 -8 51 -32 21 -32 49 -1 78 26 24 80 148 91 210 7 34 5 39 -20 48 -14
5 -38 10 -53 10 -25 1 -26 2 -9 15 10 7 30 11 44 9 14 -3 31 0 39 7 17 14 18
81 2 97 -12 12 -144 15 -196 5z"/>
</g>
</svg>
